<svg width="140" height="121" viewBox="0 0 140 121" fill="none" xmlns="http://www.w3.org/2000/svg">
<mask id="mask0_3715_8818" style="mask-type:alpha" maskUnits="userSpaceOnUse" x="0" y="0" width="140" height="140">
<rect width="140" height="140" fill="#D9D9D9"/>
</mask>
<g mask="url(#mask0_3715_8818)">
<path d="M61.8334 98.8748C63.0973 99.9443 64.4341 100.698 65.8438 101.135C67.2536 101.573 68.639 101.791 70.0001 101.791C72.8195 101.791 75.3716 100.892 77.6563 99.0936C79.941 97.295 81.2779 94.6943 81.6667 91.2915C82.1529 86.7221 80.7431 83.3436 77.4376 81.1561C74.132 78.9686 71.6529 76.1248 70.0001 72.6248C69.514 73.9859 69.2709 75.2498 69.2709 76.4165C69.2709 77.5832 69.4167 78.8471 69.7084 80.2082C70.0001 81.8609 70.3404 83.4165 70.7292 84.8748C71.1181 86.3332 71.1667 87.8887 70.8751 89.5415C70.389 91.2915 69.3195 93.0901 67.6667 94.9373C66.014 96.7846 64.0695 98.0971 61.8334 98.8748ZM11.6667 128.333V11.6665H128.333V128.333H11.6667ZM23.3334 116.666H35.0001V105H48.1251C45.889 102.18 44.1147 99.2151 42.8022 96.104C41.4897 92.9929 40.8334 90.0276 40.8334 87.2082C40.8334 82.7359 41.3195 78.5311 42.2917 74.5936C43.264 70.6561 45.0383 66.8401 47.6147 63.1457C50.1911 59.4512 53.764 55.7811 58.3334 52.1353C62.9029 48.4894 68.7362 44.7221 75.8334 40.8332C74.764 45.1109 75.2258 49.6561 77.2188 54.4686C79.2119 59.2811 82.9306 63.6804 88.3751 67.6665C91.5834 69.9998 94.1841 72.7464 96.1772 75.9061C98.1702 79.0658 99.1667 82.9304 99.1667 87.4998C99.1667 90.9026 98.632 94.038 97.5626 96.9061C96.4931 99.7741 95.0834 102.472 93.3334 105H105V116.666H116.667V23.3332H23.3334V116.666Z" fill="#DEE4DE" fill-opacity="0.08"/>
</g>
</svg>
