<svg width="120" height="120" viewBox="0 0 120 120" fill="none" xmlns="http://www.w3.org/2000/svg">
<mask id="mask0_1898_9636" style="mask-type:alpha" maskUnits="userSpaceOnUse" x="0" y="0" width="120" height="120">
<rect width="120" height="120" fill="#D9D9D9"/>
</mask>
<g mask="url(#mask0_1898_9636)">
<path fill-rule="evenodd" clip-rule="evenodd" d="M16.5037 88.4876C20.7437 92.7426 25.9075 94.8701 31.995 94.8701H93.0475C97.6842 94.8701 101.645 93.2284 104.929 89.9451C108.214 86.6617 109.856 82.6851 109.856 78.0151C109.856 73.1442 108.152 69.0971 104.742 65.8738C101.334 62.6505 97.1637 61.1317 92.2312 61.3176H89.1537V54.8601C89.1537 46.6809 86.3429 39.6859 80.7212 33.8751C75.0996 28.0642 68.2433 25.1588 60.1525 25.1588C52.6425 25.1588 46.1071 27.6242 40.5462 32.5551C34.9862 37.4859 31.7962 43.6551 30.9762 51.0626C25.1554 51.2517 20.2283 53.5284 16.195 57.8926C12.1608 62.2567 10.1437 67.2667 10.1437 72.9226C10.1437 79.0442 12.2637 84.2326 16.5037 88.4876ZM52.7707 74.1934C53.1054 74.5368 53.5746 74.7085 54.1782 74.7085H62.162C62.7656 74.7085 63.2453 74.5368 63.6011 74.1934C63.9565 73.8499 64.1341 73.3686 64.1341 72.7494V61.6811C64.1341 61.0619 63.9565 60.5697 63.6011 60.2047C63.2453 59.8402 62.7656 59.6579 62.162 59.6579H54.1782C53.5746 59.6579 53.1054 59.8402 52.7707 60.2047C52.4359 60.5697 52.2685 61.0619 52.2685 61.6811V72.7494C52.2685 73.3686 52.4359 73.8499 52.7707 74.1934ZM62.087 72.6084H54.3157V61.7581H62.087V72.6084ZM35.5021 74.1934C35.8369 74.5368 36.3061 74.7085 36.9097 74.7085H44.8935C45.4971 74.7085 45.9768 74.5315 46.3326 74.1775C46.688 73.8231 46.8656 73.3396 46.8656 72.7271V71.1694H44.8185V72.6084H37.0471V61.7581H44.8185V63.197H46.8656V61.6811C46.8656 61.0619 46.688 60.5697 46.3326 60.2047C45.9768 59.8402 45.4971 59.6579 44.8935 59.6579H36.9097C36.3061 59.6579 35.8369 59.8402 35.5021 60.2047C35.1674 60.5697 35 61.0619 35 61.6811V72.7494C35 73.3686 35.1674 73.8499 35.5021 74.1934ZM69.537 76.9554V83.3421H80V81.242H71.5842V76.7014H78.0279C78.6315 76.7014 79.1112 76.5297 79.467 76.1863C79.8223 75.8429 80 75.3615 80 74.7423V70.3147C80 69.6955 79.8223 69.2034 79.467 68.8384C79.1112 68.4738 78.6315 68.2916 78.0279 68.2916H69.537V70.3917H77.9529V74.933H71.4467C70.8431 74.933 70.3739 75.1153 70.0392 75.4798C69.7044 75.8443 69.537 76.3362 69.537 76.9554Z" fill="#DEE4DE" fill-opacity="0.08"/>
</g>
</svg>
