<svg width="41.712" xmlns="http://www.w3.org/2000/svg" height="50" fill="none"><g data-testid="Logo without text"><g class="fills"><rect rx="0" ry="0" width="41.712" height="50" class="frame-background"/></g><g data-testid="Logo without text" class="frame-children"><defs><linearGradient x1="33.33" y1="26.551" x2="38.713" y2="-12.302" id="a" gradientUnits="userSpaceOnUse" gradientTransform="matrix(2.09185 0 0 2.08966 -161.289 -5.971)"><stop stop-color="#009540"/><stop offset=".693" stop-color="#147C91"/><stop offset="1" stop-color="#1D70B7"/></linearGradient></defs><path d="m41.691 1.145.021 22.368c0 1.071-.737 1.954-1.643 1.954H25.794c-2.485 0-4.496 2.376-4.496 5.312v6.208c0 7.614-5.538 13.697-12.107 12.951C3.906 49.328 0 43.78 0 37.497v-.137c0-6.917 4.717-12.49 10.539-12.49h5.379c2.485 0 4.496-2.377 4.496-5.313V1.941c0-1.07.737-1.941 1.642-1.941h18.656c.537-.012.979.51.979 1.145Z" fill="url(#a)" style="fill: url(&quot;#a&quot;);" class="fills"/></g></g></svg>