<?xml version="1.0" encoding="utf-8"?>
<!-- Generator: Adobe Illustrator 28.0.0, SVG Export Plug-In . SVG Version: 6.00 Build 0)  -->
<svg version="1.1" id="Ebene_1" xmlns="http://www.w3.org/2000/svg" xmlns:xlink="http://www.w3.org/1999/xlink" x="0px" y="0px"
	 viewBox="0 0 386 56.22" style="enable-background:new 0 0 386 56.22;" xml:space="preserve">
<style type="text/css">
	.st0{fill:url(#SVGID_1_);}
	.st1{fill:#dee4de;}
</style>
<linearGradient id="SVGID_1_" gradientUnits="userSpaceOnUse" x1="165.1102" y1="44.049" x2="191.4559" y2="14.4527">
	<stop  offset="0" style="stop-color:#009540"/>
	<stop  offset="0.6925" style="stop-color:#147C91"/>
	<stop  offset="1" style="stop-color:#1D70B7"/>
</linearGradient>
<path class="st0" d="M197.76,9.4l0.02,17.98c0,0.86-0.7,1.57-1.56,1.57h-13.56c-2.36,0-4.27,1.91-4.27,4.27v4.99
	c0,6.12-5.26,11.01-11.5,10.41c-5.02-0.49-8.73-4.95-8.73-10v-0.11c0-5.56,4.48-10.04,10.01-10.04h5.11c2.36,0,4.27-1.91,4.27-4.27
	l0-14.16c0-0.86,0.7-1.56,1.56-1.56h17.72C197.34,8.47,197.76,8.89,197.76,9.4z"/>
<path class="st1" d="M32.64,53.22H10.91c-3.28,0-5.95-2.66-5.95-5.95V5.24c0-0.73,0.59-1.32,1.32-1.32h25.63
	c2.35,0,4.25,1.9,4.25,4.25v0c0,2.35-1.9,4.25-4.25,4.25H16.57c-0.73,0-1.32,0.59-1.32,1.32v8.58c0,0.73,0.59,1.32,1.32,1.32h14.84
	c2.11,0,3.82,1.71,3.82,3.82v0c0,2.11-1.71,3.82-3.82,3.82H16.57c-0.73,0-1.32,0.59-1.32,1.32V43.4c0,0.73,0.59,1.32,1.32,1.32
	h16.07c2.35,0,4.25,1.9,4.25,4.25v0C36.89,51.32,34.99,53.22,32.64,53.22z"/>
<path class="st1" d="M123.18,53.34c-14.63,0-25.25-10.75-25.25-24.87c0-14.06,10.62-24.68,25.25-24.68
	c14.69,0,25.25,10.62,25.25,24.68C148.43,42.59,137.87,53.34,123.18,53.34z M123.18,44.06c8.97,0,15.2-6.62,15.2-15.46
	c0-8.97-6.23-15.58-15.2-15.58s-15.26,6.62-15.26,15.58C107.92,37.44,114.21,44.06,123.18,44.06z"/>
<path class="st1" d="M208.93,52.64V4.5c0-0.45,0.37-0.82,0.82-0.82h15.44c16.86,0,26.68,10.16,26.68,24.76
	c0,14.8-9.89,25.02-26.61,25.02h-15.51C209.29,53.46,208.93,53.09,208.93,52.64z M218.95,13.66v29.68c0,0.45,0.37,0.82,0.82,0.82
	h5.28c11.62,0,16.46-6.9,16.46-15.66s-4.84-15.66-16.53-15.66h-5.22C219.32,12.84,218.95,13.21,218.95,13.66z"/>
<path class="st1" d="M258.83,52.64V4.5c0-0.45,0.37-0.82,0.82-0.82h8.64c0.45,0,0.82,0.37,0.82,0.82v48.13
	c0,0.45-0.37,0.82-0.82,0.82h-8.64C259.2,53.46,258.83,53.09,258.83,52.64z"/>
<path class="st1" d="M302.42,53.39c-14.72,0-25.3-10.77-25.3-24.86S287.57,3.75,302.1,3.75c11.03,0,20.45,6.32,23.89,16.59
	c0.18,0.53-0.23,1.07-0.79,1.07l-8.86,0c-0.32,0-0.61-0.2-0.74-0.49c-2.16-4.78-7.14-8.24-13.3-8.24c-8.92,0-15.17,6.69-15.17,15.93
	c0,9.11,6.31,16,15.49,16c6.86,0,12.16-3.75,14.48-9.3c0.23-0.55-0.17-1.15-0.76-1.15l-11.44,0c-0.45,0-0.82-0.37-0.82-0.82v-5.56
	c0-0.45,0.37-0.82,0.82-0.82l21.31,0c0.44,0,0.79,0.34,0.82,0.77c0.03,0.51,0.05,1.11,0.05,1.33
	C327.09,42.81,316.19,53.39,302.42,53.39z"/>
<path class="st1" d="M334.95,52.64V4.5c0-0.45,0.37-0.82,0.82-0.82h8.64c0.45,0,0.82,0.37,0.82,0.82v48.13
	c0,0.45-0.37,0.82-0.82,0.82h-8.64C335.32,53.46,334.95,53.09,334.95,52.64z"/>
<path class="st1" d="M361.7,52.3V13.33c0-0.45-0.37-0.82-0.82-0.82h-8.84c-0.45,0-0.82-0.37-0.82-0.82V4.83
	c0-0.45,0.37-0.82,0.82-0.82h29.62c0.45,0,0.82,0.37,0.82,0.82v6.85c0,0.45-0.37,0.82-0.82,0.82h-8.84c-0.45,0-0.82,0.37-0.82,0.82
	V52.3c0,0.45-0.37,0.82-0.82,0.82h-8.64C362.07,53.13,361.7,52.76,361.7,52.3z"/>
<g>
	<path class="st1" d="M67.84,54.07c-14.74,0-25.43-10.88-25.43-25.17c0-14.23,10.69-24.98,25.43-24.98
		c9.72,0,17.93,4.86,22.12,12.63c1.69,3.14-0.7,6.94-4.26,6.94h-0.37c-1.75,0-3.35-0.97-4.19-2.5c-2.57-4.67-7.18-7.73-13.29-7.73
		c-9.01,0-15.32,6.69-15.32,15.77c0,8.95,6.31,15.64,15.32,15.64c6.18,0,10.93-3.16,13.44-7.99c0.85-1.63,2.47-2.7,4.3-2.7h0.23
		c3.54,0,5.89,3.73,4.3,6.88C86,49,77.81,54.07,67.84,54.07z"/>
</g>
</svg>
