<svg width="140" height="140" viewBox="0 0 140 140" fill="none" xmlns="http://www.w3.org/2000/svg">
<mask id="mask0_3825_1533" style="mask-type:alpha" maskUnits="userSpaceOnUse" x="0" y="0" width="140" height="140">
<rect width="140" height="140" fill="#D9D9D9"/>
</mask>
<g mask="url(#mask0_3825_1533)">
<path d="M118.076 19.8034L118.125 64.8207C118.125 66.9739 116.424 68.7515 114.335 68.7515H81.3935C75.6603 68.7515 71.0203 73.5337 71.0203 79.4425V91.9361C71.0203 107.259 58.2421 119.502 43.0831 118C30.8878 116.773 21.875 105.607 21.875 92.9627V92.6873C21.875 78.7665 32.7584 67.5497 46.1926 67.5497H58.6065C64.3397 67.5497 68.9797 62.7676 68.9797 56.8588V21.4058C68.9797 19.2526 70.6802 17.5 72.7694 17.5H115.817C117.08 17.5 118.076 18.5265 118.076 19.8034Z" fill="#DEE4DE" fill-opacity="0.08"/>
</g>
</svg>
