<svg width="140" height="121" viewBox="0 0 140 121" fill="none" xmlns="http://www.w3.org/2000/svg">
<mask id="mask0_3715_8609" style="mask-type:alpha" maskUnits="userSpaceOnUse" x="0" y="0" width="140" height="140">
<path d="M0 0H140V140H0V0Z" fill="#D9D9D9"/>
</mask>
<g mask="url(#mask0_3715_8609)">
<path d="M42.5382 122.332C40.3653 122.332 38.5443 121.659 37.0753 120.311C35.6062 118.965 34.7818 117.252 34.6019 115.175L23.5011 17.6677H116.572L105.583 115.175C105.4 117.252 104.548 118.965 103.03 120.311C101.512 121.659 99.718 122.332 97.6471 122.332H42.5382ZM31.449 48.9781H108.792L111.541 22.0719H28.3471L31.449 48.9781ZM70.0001 106.033C73.6731 106.033 76.794 104.746 79.3626 102.174C81.9312 99.6022 83.2155 96.5004 83.2155 92.8681C83.2155 89.5286 82.2467 86.0013 80.309 82.2865C78.3724 78.5716 74.936 73.7508 70.0001 67.8242C65.0641 73.7508 61.6278 78.5745 59.6911 82.2952C57.7535 86.0169 56.7846 89.548 56.7846 92.8886C56.7846 96.5227 58.0689 99.6217 60.6376 102.185C63.2062 104.75 66.327 106.033 70.0001 106.033Z" fill="#DEE4DE" fill-opacity="0.08"/>
</g>
</svg>
