<svg width="140" height="140" viewBox="0 0 140 140" fill="none" xmlns="http://www.w3.org/2000/svg">
<mask id="mask0_3715_8455" style="mask-type:alpha" maskUnits="userSpaceOnUse" x="0" y="0" width="140" height="140">
<rect width="140" height="140" fill="#D9D9D9"/>
</mask>
<g mask="url(#mask0_3715_8455)">
<path d="M70.0904 96.2836L86.4398 64.89H70.7846V43.3008L53.639 75.11H70.0904V96.2836ZM70.0365 122.332C62.8197 122.332 56.0374 120.952 49.6898 118.192C43.3431 115.432 37.7956 111.68 33.0473 106.935C28.299 102.19 24.5486 96.6559 21.7963 90.3336C19.0439 84.0112 17.6677 77.2455 17.6677 70.0365C17.6677 62.7973 19.0478 55.9854 21.8079 49.6008C24.5681 43.2163 28.3204 37.662 33.0648 32.9379C37.8102 28.2139 43.3441 24.4879 49.6665 21.7598C55.9888 19.0318 62.7545 17.6677 69.9636 17.6677C77.2027 17.6677 84.0151 19.0415 90.4006 21.789C96.7862 24.5355 102.34 28.2635 107.064 32.9729C111.787 37.6814 115.512 43.2158 118.24 49.5761C120.968 55.9363 122.332 62.7322 122.332 69.9636C122.332 77.1804 120.964 83.9626 118.229 90.3102C115.493 96.6569 111.765 102.204 107.045 106.953C102.324 111.701 96.7842 115.451 90.424 118.204C84.0637 120.956 77.2679 122.332 70.0365 122.332Z" fill="#DEE4DE" fill-opacity="0.08"/>
</g>
</svg>
