<svg width="140" height="121" viewBox="0 0 140 121" fill="none" xmlns="http://www.w3.org/2000/svg">
<mask id="mask0_3715_8622" style="mask-type:alpha" maskUnits="userSpaceOnUse" x="0" y="0" width="140" height="140">
<rect width="140" height="140" fill="#D9D9D9"/>
</mask>
<g mask="url(#mask0_3715_8622)">
<path d="M61.2501 91.8748H78.7501L70.0001 74.3748L61.2501 91.8748ZM49.5834 75.8332C52.7917 75.8332 55.5383 74.6908 57.823 72.4061C60.1077 70.1214 61.2501 67.3748 61.2501 64.1665C61.2501 60.9582 60.1077 58.2116 57.823 55.9269C55.5383 53.6422 52.7917 52.4998 49.5834 52.4998C46.3751 52.4998 43.6286 53.6422 41.3438 55.9269C39.0591 58.2116 37.9167 60.9582 37.9167 64.1665C37.9167 67.3748 39.0591 70.1214 41.3438 72.4061C43.6286 74.6908 46.3751 75.8332 49.5834 75.8332ZM90.4167 75.8332C93.6251 75.8332 96.3716 74.6908 98.6563 72.4061C100.941 70.1214 102.083 67.3748 102.083 64.1665C102.083 60.9582 100.941 58.2116 98.6563 55.9269C96.3716 53.6422 93.6251 52.4998 90.4167 52.4998C87.2084 52.4998 84.4619 53.6422 82.1772 55.9269C79.8924 58.2116 78.7501 60.9582 78.7501 64.1665C78.7501 67.3748 79.8924 70.1214 82.1772 72.4061C84.4619 74.6908 87.2084 75.8332 90.4167 75.8332ZM35.0001 128.333V103.541C31.2084 101.889 27.8786 99.6769 25.0105 96.9061C22.1424 94.1353 19.7119 90.9998 17.7188 87.4998C15.7258 83.9998 14.2188 80.2568 13.198 76.2707C12.1772 72.2846 11.6667 68.2498 11.6667 64.1665C11.6667 48.8054 17.1112 36.2151 28.0001 26.3957C38.889 16.5762 52.889 11.6665 70.0001 11.6665C87.1112 11.6665 101.111 16.5762 112 26.3957C122.889 36.2151 128.333 48.8054 128.333 64.1665C128.333 68.2498 127.823 72.2846 126.802 76.2707C125.781 80.2568 124.274 83.9998 122.281 87.4998C120.288 90.9998 117.858 94.1353 114.99 96.9061C112.122 99.6769 108.792 101.889 105 103.541V128.333H87.5001V116.666H75.8334V128.333H64.1667V116.666H52.5001V128.333H35.0001Z" fill="#DEE4DE" fill-opacity="0.08"/>
</g>
</svg>
