<svg width="90" height="120" viewBox="0 0 90 120" fill="none" xmlns="http://www.w3.org/2000/svg">
<mask id="mask0_296_4768" style="mask-type:alpha" maskUnits="userSpaceOnUse" x="0" y="0" width="120" height="120">
<rect width="120" height="120" fill="#D9D9D9"/>
</mask>
<g mask="url(#mask0_296_4768)">
<path fill-rule="evenodd" clip-rule="evenodd" d="M32.1538 97.5002C33.4938 98.8402 35.1075 99.5102 36.995 99.5102H83.0188C84.9063 99.5102 86.52 98.8402 87.86 97.5002C89.2 96.1602 89.87 94.5464 89.87 92.6589V27.9664H94.885V24.1927H75.7163V20.9514H44.2975V24.2127H25.13V27.9664H30.1438V92.6589C30.1438 94.5464 30.8138 96.1602 32.1538 97.5002ZM54.9139 77.4629V85.25H65.0861V77.4614L75 67.1903V54.121C75 53.0115 74.5916 52.0515 73.7748 51.2408C72.958 50.4297 71.9906 50.0241 70.8725 50.0241H67.1367V37.75H64.8632V50.007H55.1368V37.75H52.8633V50.0241H49.1275C48.0094 50.0241 47.042 50.4297 46.2252 51.2408C45.4084 52.0515 45 53.0115 45 54.121V67.1903L54.9139 77.4629Z" fill="#DEE4DE" fill-opacity="0.08"/>
</g>
</svg>
